# xmcd
# 
# Track frame offsets:
#     150
#     14100
#     33750
#     48833
#     62468
#     76630
#     91235
#     102075
#     122700
#     144930
#     157285
#     176470
#     189363
#     200240
#     212148
#     227875
#     240183
#     248085
#     262710
#     277995
#     298298
#     312193
#     333995
# 
# Disc length: 4752
# 
# Revision: 7
# Processed by: cddbd v1.5.2PL0 Copyright (c) Steve Scherf et al.
# Submitted via: fre:ac v1.0.31
# 
DISCID=37128e17
DTITLE=Michel Polnaref - Michel Polnareff Best
DYEAR=2004
DGENRE=Pop
TTITLE0=Tout, Tout Pour Me Cherie (M.Polnareff) (1969)
TTITLE1=Love Me, Please Love Me (F.Gerald-M.Polnareff) (1966)
TTITLE2=Holidays (J.L.Dabadie-M.Polnareff) (1972)
TTITLE3=Ame Caline (M.Polnareff) (1967)
TTITLE4=L'amour Avec Toi  (M.Polnareff) (1966)
TTITLE5=La Poupee Qui Fait Non (F.Gerald-M.Polnareff) (1966)
TTITLE6=La Michetonneuse (M.Polnareff) (1969)
TTITLE7=On Ira Tous Au Paradis  (J.L.Dabadie-M.Polnareff) (1972)
TTITLE8=Le Bal Des Laze  (M.Polnareff-P.Delanoe) (1968)
TTITLE9=J'ai Du Chagrinmarie (My Friend)  (J.L.Dabadie-M.Polnareff) (1968)
TTITLE10=Comme Juliette Et Romeo  (M.Polnareff) (1971)
TTITLE11=Allo Georgina  (Pythagoras-M.Polnareff-Katsaros) (1971)
TTITLE12=Ring-A-Ding (J-L.Dabadie-M.Polnareff) (1968)
TTITLE13=Qui A Tue Grand' Maman  (M.Polnareff) (1971)
TTITLE14=Tous Les Bateaux...Tous Les Oiseaux (J.L.Dabadie-P.De Seneville) (1969)
TTITLE15=Dans La Maison Vide (J.L.Dabadie-P.De Seneville-G.Auteve) (1969)
TTITLE16=Ca N'arrive Qu'aux Autres (J.L.Dabadie-M.Polnareff) (1971)
TTITLE17=Nos Mots D'amour (J.L.Dabadie-M.Polnareff) (1971)
TTITLE18=Ne Dans Un Ice-Cream (J.L.Dabadie-M.Polnareff) (1971)
TTITLE19=La Mouche (M.Polnareff) (1972)
TTITLE20=Un Train Ce Soir (J.L.Dabadie-M.Polnareff) (1970)
TTITLE21=Lettre A France (J.L.Dabadie-M.Polnareff) (1978)
TTITLE22=Gloria (P.De Seneville-M.Polnareff) (1970)
EXTD=
EXTT0=
EXTT1=
EXTT2=
EXTT3=
EXTT4=
EXTT5=
EXTT6=
EXTT7=
EXTT8=
EXTT9=
EXTT10=
EXTT11=
EXTT12=
EXTT13=
EXTT14=
EXTT15=
EXTT16=
EXTT17=
EXTT18=
EXTT19=
EXTT20=
EXTT21=
EXTT22=
PLAYORDER=
